<svg xmlns="http://www.w3.org/2000/svg" width="416" height="393" viewBox="0 0 416 393" fill="none" style="&#10;">
    <path opacity="0.989" fill-rule="evenodd" clip-rule="evenodd" d="M44.6739 0C61.6633 1.82082 76.6824 8.21779 89.7312 19.1911C129.363 60.0039 156.343 108.121 170.668 163.541C182.715 226.899 182.715 290.313 170.668 353.784C169.459 361.774 167.514 369.562 164.827 377.147C155.068 382.303 145.055 387.031 134.789 391.331C131.853 392.663 129.071 392.384 126.445 390.497C88.1944 343.53 56.2092 292.355 30.4892 236.968C2.99801 176.126 -5.90215 112.712 3.78852 46.7261C7.88957 22.3483 21.5179 6.77278 44.6739 0Z" fill="url(#paint0_linear_1791_87)"/>
    <path opacity="0.986" fill-rule="evenodd" clip-rule="evenodd" d="M263.285 238.637C268.201 270.382 281.273 298.196 302.502 322.076C303.615 323.745 303.615 325.414 302.502 327.083C283.99 350.05 264.243 372.023 243.26 393C228.758 389.649 214.573 384.921 200.705 378.815C187.418 294.505 191.312 211.065 212.387 128.497C216.542 114.338 223.496 101.823 233.247 90.949C242.494 83.5095 253.062 79.8938 264.954 80.1019C302.759 82.7835 338.359 93.0744 371.756 110.974C395.228 123.884 408.857 143.633 412.642 170.217C420.75 219.531 410.738 264.588 382.603 305.389C344.468 347.397 312.204 342.946 285.814 292.038C277.77 274.256 270.261 256.455 263.285 238.637ZM259.947 225.287C257.556 221.258 256.722 216.808 257.444 211.936C259.245 216.213 260.079 220.662 259.947 225.287ZM259.947 225.287C262.517 229.188 263.629 233.639 263.285 238.637C260.41 234.832 259.298 230.381 259.947 225.287Z" fill="url(#paint1_linear_1791_87)"/>
    <defs>
        <linearGradient id="paint0_linear_1791_87" x1="89.8514" y1="0" x2="89.8514" y2="392.157" gradientUnits="userSpaceOnUse">
            <stop stop-color="#8926DD"/>
            <stop offset="1" stop-color="#D490F2"/>
        </linearGradient>
        <linearGradient id="paint1_linear_1791_87" x1="304.181" y1="80.0934" x2="304.181" y2="393" gradientUnits="userSpaceOnUse">
            <stop stop-color="#8926DD"/>
            <stop offset="1" stop-color="#D490F2"/>
        </linearGradient>
    </defs>
</svg>